<svg width="56" height="56" viewBox="0 0 56 56" fill="none" xmlns="http://www.w3.org/2000/svg">
<g filter="url(#filter0_d)">
<path d="M27 50C40.2548 50 51 39.2548 51 26C51 12.7452 40.2548 2 27 2C13.7452 2 3 12.7452 3 26C3 39.2548 13.7452 50 27 50Z" fill="white"/>
<path d="M31.7894 14.7058H22.6595C18.949 14.7058 15.9304 17.7245 15.9304 21.435V30.5649C15.9304 34.2754 18.949 37.294 22.6595 37.294H31.7894C35.4999 37.294 38.5186 34.2754 38.5186 30.5649V21.435C38.5186 17.7245 35.4999 14.7058 31.7894 14.7058ZM36.2462 30.5649C36.2462 33.0263 34.2508 35.0217 31.7894 35.0217H22.6595C20.1981 35.0217 18.2027 33.0263 18.2027 30.5649V21.435C18.2027 18.9735 20.1981 16.9782 22.6595 16.9782H31.7894C34.2508 16.9782 36.2462 18.9735 36.2462 21.435V30.5649Z" fill="url(#paint0_linear)"/>
<path d="M27.2244 20.1577C24.0031 20.1577 21.3823 22.7785 21.3823 25.9998C21.3823 29.2211 24.0031 31.8419 27.2244 31.8419C30.4458 31.8419 33.0666 29.2211 33.0666 25.9998C33.0666 22.7784 30.4458 20.1577 27.2244 20.1577ZM27.2244 29.5696C25.2529 29.5696 23.6547 27.9714 23.6547 25.9998C23.6547 24.0283 25.253 22.4301 27.2244 22.4301C29.196 22.4301 30.7942 24.0283 30.7942 25.9998C30.7942 27.9713 29.1959 29.5696 27.2244 29.5696Z" fill="url(#paint1_linear)"/>
<path d="M33.0779 21.6018C33.8511 21.6018 34.4778 20.975 34.4778 20.2019C34.4778 19.4288 33.8511 18.802 33.0779 18.802C32.3048 18.802 31.678 19.4288 31.678 20.2019C31.678 20.975 32.3048 21.6018 33.0779 21.6018Z" fill="url(#paint2_linear)"/>
</g>
<defs>
<filter id="filter0_d" x="0" y="0" width="56" height="56" filterUnits="userSpaceOnUse" color-interpolation-filters="sRGB">
<feFlood flood-opacity="0" result="BackgroundImageFix"/>
<feColorMatrix in="SourceAlpha" type="matrix" values="0 0 0 0 0 0 0 0 0 0 0 0 0 0 0 0 0 0 127 0"/>
<feOffset dx="1" dy="2"/>
<feGaussianBlur stdDeviation="2"/>
<feColorMatrix type="matrix" values="0 0 0 0 0 0 0 0 0 0 0 0 0 0 0 0 0 0 0.15 0"/>
<feBlend mode="normal" in2="BackgroundImageFix" result="effect1_dropShadow"/>
<feBlend mode="normal" in="SourceGraphic" in2="effect1_dropShadow" result="shape"/>
</filter>
<linearGradient id="paint0_linear" x1="27.2245" y1="37.2283" x2="27.2245" y2="14.8813" gradientUnits="userSpaceOnUse">
<stop stop-color="#E09B3D"/>
<stop offset="0.3" stop-color="#C74C4D"/>
<stop offset="0.6" stop-color="#C21975"/>
<stop offset="1" stop-color="#7024C4"/>
</linearGradient>
<linearGradient id="paint1_linear" x1="27.2244" y1="37.2282" x2="27.2244" y2="14.8812" gradientUnits="userSpaceOnUse">
<stop stop-color="#E09B3D"/>
<stop offset="0.3" stop-color="#C74C4D"/>
<stop offset="0.6" stop-color="#C21975"/>
<stop offset="1" stop-color="#7024C4"/>
</linearGradient>
<linearGradient id="paint2_linear" x1="33.0779" y1="37.2285" x2="33.0779" y2="14.8815" gradientUnits="userSpaceOnUse">
<stop stop-color="#E09B3D"/>
<stop offset="0.3" stop-color="#C74C4D"/>
<stop offset="0.6" stop-color="#C21975"/>
<stop offset="1" stop-color="#7024C4"/>
</linearGradient>
</defs>
</svg>
