<svg width="56" height="56" viewBox="0 0 56 56" fill="none" xmlns="http://www.w3.org/2000/svg">
<g filter="url(#filter0_d)">
<path d="M27 50C40.2548 50 51 39.2548 51 26C51 12.7452 40.2548 2 27 2C13.7452 2 3 12.7452 3 26C3 39.2548 13.7452 50 27 50Z" fill="white"/>
<path d="M38.5844 37.5899V37.5889H38.59V29.3041C38.59 25.251 37.7175 22.1289 32.9792 22.1289C30.7014 22.1289 29.1728 23.3789 28.5488 24.5639H28.4829V22.5073H23.9903V37.5889H28.6683V30.1211C28.6683 28.1548 29.041 26.2535 31.4761 26.2535C33.8753 26.2535 33.9111 28.4974 33.9111 30.2472V37.5899H38.5844Z" fill="#0077B5"/>
<path d="M16.3727 22.5085H21.0564V37.5902H16.3727V22.5085Z" fill="#0077B5"/>
<path d="M18.7127 15C17.2152 15 16 16.2152 16 17.7127C16 19.2102 17.2152 20.4508 18.7127 20.4508C20.2102 20.4508 21.4254 19.2102 21.4254 17.7127C21.4244 16.2152 20.2093 15 18.7127 15V15Z" fill="#0077B5"/>
</g>
<defs>
<filter id="filter0_d" x="0" y="0" width="56" height="56" filterUnits="userSpaceOnUse" color-interpolation-filters="sRGB">
<feFlood flood-opacity="0" result="BackgroundImageFix"/>
<feColorMatrix in="SourceAlpha" type="matrix" values="0 0 0 0 0 0 0 0 0 0 0 0 0 0 0 0 0 0 127 0"/>
<feOffset dx="1" dy="2"/>
<feGaussianBlur stdDeviation="2"/>
<feColorMatrix type="matrix" values="0 0 0 0 0 0 0 0 0 0 0 0 0 0 0 0 0 0 0.15 0"/>
<feBlend mode="normal" in2="BackgroundImageFix" result="effect1_dropShadow"/>
<feBlend mode="normal" in="SourceGraphic" in2="effect1_dropShadow" result="shape"/>
</filter>
</defs>
</svg>
